<?xml version="1.0" standalone="no"?>
<!DOCTYPE svg PUBLIC "-//W3C//DTD SVG 20010904//EN"
 "http://www.w3.org/TR/2001/REC-SVG-20010904/DTD/svg10.dtd">
<svg version="1.0" xmlns="http://www.w3.org/2000/svg"
 width="700.000000pt" height="700.000000pt" viewBox="0 0 700.000000 700.000000"
 preserveAspectRatio="xMidYMid meet">
<metadata>
Created by potrace 1.11, written by Peter Selinger 2001-2013
</metadata>
<g transform="translate(0.000000,700.000000) scale(0.100000,-0.100000)"
fill="#000000" stroke="none">
<path d="M2193 6886 c-124 -30 -269 -132 -316 -220 -33 -64 -30 -149 8 -212
31 -50 63 -71 201 -131 82 -36 139 -94 183 -187 38 -79 208 -545 217 -595 4
-24 -3 -30 -77 -69 -112 -59 -258 -157 -359 -242 -47 -38 -88 -70 -92 -70 -12
0 -26 69 -32 158 -9 134 -50 191 -147 200 -174 17 -389 -254 -315 -396 33 -63
57 -74 178 -84 61 -5 125 -15 140 -21 l29 -12 -51 -60 c-77 -90 -181 -238
-240 -342 -29 -51 -53 -93 -55 -93 -5 0 -479 167 -532 188 -135 52 -185 100
-254 247 -53 113 -81 148 -141 175 -148 67 -311 -50 -388 -280 -29 -86 -32
-207 -7 -272 34 -88 131 -148 219 -134 21 4 73 20 116 38 107 43 217 50 304
18 58 -21 254 -110 469 -214 l96 -46 -34 -116 c-39 -135 -71 -304 -80 -421 -3
-46 -10 -83 -15 -83 -15 0 -66 39 -130 97 -31 29 -69 55 -83 59 -40 10 -110
-1 -138 -22 -118 -90 -128 -363 -16 -475 70 -70 149 -66 236 14 127 116 143
121 143 45 1 -107 45 -355 88 -496 11 -34 17 -64 13 -66 -37 -23 -538 -257
-576 -269 -113 -35 -175 -31 -315 25 -139 55 -261 25 -314 -77 -29 -55 -34
-182 -11 -262 25 -85 82 -189 134 -242 88 -90 180 -112 277 -67 59 27 82 57
125 157 61 143 113 198 238 250 88 37 543 199 558 199 6 0 27 -32 48 -72 54
-102 182 -290 259 -380 l65 -77 -32 -9 c-18 -6 -70 -13 -116 -16 -134 -10
-191 -54 -199 -153 -5 -60 22 -128 80 -197 44 -53 138 -112 203 -127 50 -11
57 -10 102 12 69 35 93 75 93 160 0 67 16 169 27 169 3 0 36 -24 72 -54 107
-87 217 -163 325 -223 55 -31 103 -58 105 -60 4 -3 -51 -165 -145 -427 -91
-250 -118 -285 -289 -368 -114 -54 -149 -83 -176 -143 -56 -123 21 -264 192
-349 224 -112 445 -69 490 96 14 53 7 97 -31 192 -77 193 -70 226 146 675 94
195 99 202 123 197 15 -3 60 -15 101 -26 104 -29 257 -57 374 -70 55 -6 102
-13 105 -15 9 -10 -19 -53 -82 -123 -71 -79 -84 -111 -74 -184 14 -105 170
-175 328 -149 142 23 209 84 209 188 0 54 -10 73 -80 149 -44 47 -86 111 -78
119 2 2 53 9 113 15 142 14 289 43 416 81 56 16 103 28 105 26 6 -6 220 -449
255 -528 25 -58 33 -92 37 -154 4 -74 1 -90 -38 -204 -33 -99 -40 -133 -36
-165 9 -59 45 -116 93 -150 36 -25 54 -30 120 -34 43 -2 104 1 136 8 123 25
283 133 327 221 70 136 8 255 -171 328 -68 28 -96 47 -144 95 -53 53 -66 74
-102 166 -54 141 -195 541 -191 544 2 1 35 20 73 40 103 56 248 155 345 235
47 39 88 71 91 71 12 0 28 -84 32 -167 6 -98 26 -137 88 -172 55 -31 121 -24
197 21 152 92 235 272 170 368 -43 62 -66 72 -185 80 -59 4 -118 11 -130 16
-22 9 -20 12 43 89 82 100 187 255 244 362 25 46 48 83 52 83 17 0 560 -195
614 -221 86 -40 143 -106 204 -233 55 -116 93 -156 166 -176 182 -51 378 179
379 445 0 116 -26 174 -98 219 -74 45 -123 46 -237 1 -119 -47 -219 -57 -301
-30 -54 18 -224 95 -481 219 l-137 66 20 67 c31 106 67 288 79 403 6 58 12
106 13 107 8 7 79 -40 132 -88 81 -73 97 -81 156 -81 78 0 124 38 160 132 43
114 21 285 -47 360 -71 79 -158 75 -248 -10 -57 -53 -123 -100 -141 -100 -8 0
-16 41 -24 123 -13 141 -50 333 -85 441 -17 55 -21 78 -12 84 13 11 425 209
541 260 73 33 88 36 175 36 85 1 104 -3 185 -34 153 -58 250 -41 319 57 26 37
30 54 34 125 7 143 -42 276 -142 385 -152 166 -324 126 -415 -96 -42 -101
-106 -175 -186 -215 -57 -28 -250 -100 -485 -181 -69 -24 -132 -46 -141 -50
-13 -5 -26 12 -59 72 -74 135 -234 359 -299 417 -12 11 -21 22 -21 27 0 15 67
31 162 39 109 9 149 26 185 80 90 132 -93 384 -287 398 -45 3 -61 0 -89 -20
-64 -43 -74 -67 -81 -186 -6 -88 -16 -137 -35 -160 -2 -2 -42 28 -90 67 -104
83 -197 146 -320 217 -61 36 -89 58 -87 68 4 23 163 473 201 573 48 124 104
180 246 248 82 39 121 64 144 92 57 69 66 149 25 231 -33 67 -99 124 -199 172
-196 94 -380 76 -451 -46 -43 -73 -43 -123 2 -234 34 -86 38 -104 38 -190 1
-85 -2 -103 -30 -170 -28 -67 -262 -560 -269 -568 -2 -2 -34 6 -71 17 -121 37
-285 70 -406 83 -65 7 -118 16 -118 21 0 20 35 72 90 132 65 72 85 118 77 176
-7 53 -40 95 -100 126 -68 35 -205 44 -291 19 -104 -31 -168 -115 -151 -203 3
-19 28 -58 58 -94 60 -70 107 -138 107 -154 0 -8 -37 -14 -108 -18 -118 -7
-276 -34 -421 -73 -51 -14 -97 -22 -101 -17 -9 10 -230 470 -266 555 -19 45
-28 86 -32 143 -4 74 -1 90 37 203 48 142 48 181 0 257 -54 86 -179 116 -326
81z"/>
</g>
</svg>
